<svg width="35" height="35" viewBox="0 0 35 35" fill="none" xmlns="http://www.w3.org/2000/svg">
<g id="&#240;&#159;&#166;&#134; icon &#34;Times Circle&#34;">
<path id="Vector" d="M17.5 0C7.83266 0 0 7.83266 0 17.5C0 27.1673 7.83266 35 17.5 35C27.1673 35 35 27.1673 35 17.5C35 7.83266 27.1673 0 17.5 0ZM26.0806 22.0938C26.4123 22.4254 26.4123 22.9617 26.0806 23.2933L23.2863 26.0806C22.9546 26.4123 22.4183 26.4123 22.0867 26.0806L17.5 21.4516L12.9062 26.0806C12.5746 26.4123 12.0383 26.4123 11.7067 26.0806L8.91935 23.2863C8.5877 22.9546 8.5877 22.4183 8.91935 22.0867L13.5484 17.5L8.91935 12.9062C8.5877 12.5746 8.5877 12.0383 8.91935 11.7067L11.7137 8.9123C12.0454 8.58065 12.5817 8.58065 12.9133 8.9123L17.5 13.5484L22.0938 8.91935C22.4254 8.5877 22.9617 8.5877 23.2933 8.91935L26.0877 11.7137C26.4194 12.0454 26.4194 12.5817 26.0877 12.9133L21.4516 17.5L26.0806 22.0938Z" fill="#D3D3D3"/>
</g>
</svg>
