<svg width="35" height="40" viewBox="0 0 35 40" fill="none" xmlns="http://www.w3.org/2000/svg">
<g id="&#240;&#159;&#166;&#134; icon &#34;lock&#34;">
<path id="Vector" d="M31.25 17.5H29.375V11.875C29.375 5.32812 24.0469 0 17.5 0C10.9531 0 5.625 5.32812 5.625 11.875V17.5H3.75C1.67969 17.5 0 19.1797 0 21.25V36.25C0 38.3203 1.67969 40 3.75 40H31.25C33.3203 40 35 38.3203 35 36.25V21.25C35 19.1797 33.3203 17.5 31.25 17.5ZM23.125 17.5H11.875V11.875C11.875 8.77344 14.3984 6.25 17.5 6.25C20.6016 6.25 23.125 8.77344 23.125 11.875V17.5Z" fill="#D3D3D3"/>
</g>
</svg>
