<svg width="39" height="35" viewBox="0 0 39 35" fill="none" xmlns="http://www.w3.org/2000/svg">
<g id="&#240;&#159;&#166;&#134; icon &#34;question mark circle&#34;">
<path id="Vector" d="M19.1169 2.91666C15.9661 2.91666 12.8861 3.77195 10.2663 5.37439C7.64655 6.97683 5.60468 9.25443 4.39893 11.9192C3.19318 14.5839 2.8777 17.5162 3.49239 20.3451C4.10707 23.1739 5.62432 25.7724 7.85225 27.812C10.0802 29.8515 12.9188 31.2404 16.009 31.8031C19.0992 32.3658 22.3023 32.077 25.2133 30.9732C28.1242 29.8695 30.6122 28.0003 32.3627 25.6021C34.1132 23.2038 35.0475 20.3843 35.0475 17.5C35.0475 15.5849 34.6354 13.6885 33.8349 11.9192C33.0343 10.1499 31.8608 8.5422 30.3815 7.18802C28.9022 5.83383 27.1461 4.75963 25.2133 4.02675C23.2805 3.29387 21.2089 2.91666 19.1169 2.91666ZM19.1169 26.25C18.8018 26.25 18.4938 26.1645 18.2318 26.0042C17.9699 25.844 17.7657 25.6162 17.6451 25.3497C17.5245 25.0833 17.493 24.79 17.5544 24.5071C17.6159 24.2243 17.7676 23.9644 17.9904 23.7605C18.2132 23.5565 18.4971 23.4176 18.8061 23.3613C19.1151 23.3051 19.4354 23.334 19.7265 23.4443C20.0176 23.5547 20.2664 23.7416 20.4415 23.9814C20.6165 24.2213 20.71 24.5032 20.71 24.7917C20.71 25.1784 20.5421 25.5494 20.2434 25.8229C19.9446 26.0963 19.5394 26.25 19.1169 26.25ZM20.71 18.725V20.4167C20.71 20.8034 20.5421 21.1744 20.2434 21.4479C19.9446 21.7213 19.5394 21.875 19.1169 21.875C18.6944 21.875 18.2892 21.7213 17.9904 21.4479C17.6917 21.1744 17.5238 20.8034 17.5238 20.4167V17.5C17.5238 17.1132 17.6917 16.7423 17.9904 16.4688C18.2892 16.1953 18.6944 16.0417 19.1169 16.0417C19.5895 16.0417 20.0515 15.9134 20.4445 15.673C20.8374 15.4326 21.1437 15.091 21.3246 14.6913C21.5054 14.2916 21.5528 13.8517 21.4606 13.4274C21.3684 13.0031 21.1408 12.6133 20.8066 12.3074C20.4724 12.0014 20.0466 11.7931 19.5831 11.7087C19.1195 11.6243 18.6391 11.6676 18.2024 11.8332C17.7658 11.9987 17.3926 12.2791 17.13 12.6388C16.8674 12.9986 16.7273 13.4215 16.7273 13.8542C16.7273 14.2409 16.5595 14.6119 16.2607 14.8854C15.9619 15.1588 15.5567 15.3125 15.1342 15.3125C14.7117 15.3125 14.3065 15.1588 14.0078 14.8854C13.709 14.6119 13.5412 14.2409 13.5412 13.8542C13.537 12.9067 13.821 11.9768 14.3614 11.1687C14.9018 10.3606 15.6772 9.70619 16.6008 9.27864C17.5245 8.8511 18.5599 8.66734 19.5912 8.74794C20.6224 8.82854 21.6088 9.17032 22.4399 9.73502C23.2711 10.2997 23.9141 11.065 24.297 11.9453C24.6799 12.8256 24.7876 13.786 24.608 14.7191C24.4284 15.6522 23.9687 16.5212 23.2803 17.2287C22.5918 17.9362 21.7018 18.4543 20.71 18.725Z" fill="#0A62C4"/>
</g>
</svg>
