<svg width="35" height="35" viewBox="0 0 35 35" fill="none" xmlns="http://www.w3.org/2000/svg">
<g id="&#240;&#159;&#166;&#134; icon &#34;Search&#34;">
<path id="Vector" d="M34.524 30.2649L27.7081 23.449C27.4004 23.1413 26.9834 22.9704 26.5459 22.9704H25.4315C27.3184 20.5572 28.4396 17.5218 28.4396 14.2198C28.4396 6.36472 22.0749 0 14.2198 0C6.36472 0 0 6.36472 0 14.2198C0 22.0749 6.36472 28.4396 14.2198 28.4396C17.5218 28.4396 20.5572 27.3184 22.9704 25.4315V26.5459C22.9704 26.9834 23.1413 27.4004 23.449 27.7081L30.2649 34.524C30.9075 35.1666 31.9467 35.1666 32.5825 34.524L34.5172 32.5893C35.1598 31.9467 35.1598 30.9075 34.524 30.2649ZM14.2198 22.9704C9.38643 22.9704 5.46915 19.06 5.46915 14.2198C5.46915 9.38643 9.37959 5.46915 14.2198 5.46915C19.0532 5.46915 22.9704 9.37959 22.9704 14.2198C22.9704 19.0532 19.06 22.9704 14.2198 22.9704Z" fill="#D3D3D3"/>
</g>
</svg>
