<svg width="35" height="40" viewBox="0 0 35 40" fill="none" xmlns="http://www.w3.org/2000/svg">
<g id="&#240;&#159;&#166;&#134; icon &#34;User&#34;">
<path id="Vector" d="M17.5 20C23.0234 20 27.5 15.5234 27.5 10C27.5 4.47656 23.0234 0 17.5 0C11.9766 0 7.5 4.47656 7.5 10C7.5 15.5234 11.9766 20 17.5 20ZM24.5 22.5H23.1953C21.4609 23.2969 19.5312 23.75 17.5 23.75C15.4688 23.75 13.5469 23.2969 11.8047 22.5H10.5C4.70312 22.5 0 27.2031 0 33V36.25C0 38.3203 1.67969 40 3.75 40H31.25C33.3203 40 35 38.3203 35 36.25V33C35 27.2031 30.2969 22.5 24.5 22.5Z" fill="#D3D3D3"/>
</g>
</svg>
